<?xml version="1.0" encoding="iso-8859-1"?>
<!-- Generator: Adobe Illustrator 19.0.0, SVG Export Plug-In . SVG Version: 6.00 Build 0)  -->
<svg xmlns="http://www.w3.org/2000/svg" xmlns:xlink="http://www.w3.org/1999/xlink" version="1.1" id="Capa_1" x="0px" y="0px" viewBox="0 0 512 512" style="enable-background:new 0 0 512 512;" xml:space="preserve" width="512" height="512">
<g>
	<path d="M356.435,123.667v-23.232C356.435,45.055,311.38,0,256,0S155.565,45.055,155.565,100.435v23.232H59.667V512h392.667   V123.667H356.435z M422.333,482H89.667V153.667h65.898v43.083h-19.23v30h68.46v-30h-19.23v-43.083h140.87v43.083h-19.23v30h68.46   v-30h-19.23v-43.083h65.898V482z M185.565,100.435C185.565,61.597,217.162,30,256,30s70.435,31.597,70.435,70.435v23.232h-140.87   V100.435z"/>
	<path d="M256,251.667c-49.442,0-89.667,45.009-89.667,100.333S206.558,452.333,256,452.333S345.667,407.324,345.667,352   S305.443,251.667,256,251.667z M219.667,296.266v21.216c0,20.431,11.352,38.798,29.625,47.935   c8.044,4.022,13.041,12.108,13.041,21.102v35.415c-2.082,0.26-4.194,0.4-6.333,0.4c-32.9,0-59.667-31.551-59.667-70.333   C196.333,329.326,205.491,309.137,219.667,296.266z M292.333,407.734v-21.216c0-20.431-11.352-38.798-29.625-47.935   c-8.044-4.022-13.041-12.108-13.041-21.102v-35.415c2.082-0.26,4.194-0.4,6.333-0.4c32.9,0,59.667,31.551,59.667,70.333   C315.667,374.674,306.509,394.864,292.333,407.734z"/>
</g>















</svg>
