<svg class="cafe" enable-background="new 0 0 444.504 444.504" viewBox="0 0 444.504 444.504"  xmlns="http://www.w3.org/2000/svg"><path d="m162.952 121.196c-.539 4.156-.833 8.341-.88 12.532-.012 1.137-.006 2.268.017 3.393h100.791c.015-.726.032-1.452.032-2.183.001-4.595-.295-9.185-.887-13.742z"/><path d="m200.252 206.492c.2.063.409.093.618.088h23.125c.21.005.42-.024.62-.088 19.329-7.075 33.651-29.712 37.35-57.371h-98.98c3.651 27.752 17.882 50.331 37.267 57.371z"/><path d="m284.359 140.357c-2.789-2.085-6.035-3.478-9.468-4.062-.072 15.925-3.616 31.644-10.383 46.06 4.537-1.777 8.845-3.246 13.086-4.459 10.368-2.962 16.807-10.778 16.807-20.4 0-5.739-4.129-12.788-10.042-17.139z"/><path d="m352.263 76.022c-26.8-47.6-75.411-76.022-130.039-76.022-53.658 0-101.84 27.667-128.886 74.011s-27.437 101.9-1.044 148.619l125.34 221.874 132.177-217.871c28.334-46.704 29.251-103.008 2.452-150.611zm-130.031 191.084c-62.384 0-112.956-50.572-112.956-112.956s50.572-112.956 112.956-112.956 112.956 50.572 112.956 112.956v.002c-.071 62.354-50.602 112.884-112.956 112.954z"/><path d="m222.232 53.194c-55.756 0-100.956 45.2-100.956 100.956s45.2 100.956 100.956 100.956 100.955-45.198 100.956-100.954c-.062-55.731-45.225-100.895-100.956-100.958zm84.169 104.306c0 14.971-10.012 27.506-25.508 31.934-8.301 2.46-16.387 5.591-24.179 9.364l-4.173 1.961c-6.79 7.818-14.848 13.725-23.8 17-1.52.549-3.126.826-4.742.818h-23.129c-1.608.008-3.205-.266-4.718-.81-27.573-10.015-46.524-44.63-46.083-84.176.065-6.005.589-11.997 1.568-17.922.497-3.641 3.562-6.384 7.236-6.476h107.229c3.673.092 6.737 2.834 7.235 6.474.464 2.793.809 5.628 1.069 8.481 6.189.536 12.102 2.802 17.064 6.54 9.071 6.677 14.931 17.2 14.931 26.812z"/></svg>